<svg xmlns="http://www.w3.org/2000/svg" viewBox="0 0 266.56 184.41"><defs><style>.cls-1{fill:#fff;}</style></defs><title>Aktiv 6eye_open</title><g id="Lag_2" data-name="Lag 2"><g id="Lag_1-2" data-name="Lag 1"><path class="cls-1" d="M154.93,155.49a92,92,0,0,1-51.4-2.22,55,55,0,0,0,59.61-.09C160.47,154.05,157.73,154.81,154.93,155.49Zm-.77-99.38a55.08,55.08,0,0,0-46.63,2.28C130.67,54.47,145.35,54.85,154.16,56.11Z"/><path class="cls-1" d="M245.64,94.83l20.92-15.1-12.23-16.2L233.66,78.41,221.19,65.09c5.62-8.25,11.21-16.46,16.93-24.84L221.33,28.53l-16,23.52-13.85-8.42c-1.79-1.09-4.54-1.85-5.1-3.4s.91-4,1.53-6.11c2.09-7,4.2-14,6.37-21.15L174.87,6.88c-2.76,9-5.4,17.63-8,26l-23.65-4.63V0h-20V28.26l-23.5,4.6q-3.93-12.63-8.07-26L72.33,13q4.31,14.13,8.4,27.53L61.28,52.16,45.19,28.5,28.45,40.22l17.21,25L33.2,78.38,12.43,63.51C8.22,69,4.16,74.28,0,79.7L21.23,94.83c-1.13,1.79-2.15,3.3-3.08,4.87s-1.69,3.24-2.66,4.79a2.93,2.93,0,0,0,0,3.38c11.86,21.55,27.65,39.54,47.83,53.44,22.9,15.76,47.94,24.46,76,22.92a117.83,117.83,0,0,0,48.05-13.15c27.77-14.32,48.69-35.8,63.85-63.15a3.92,3.92,0,0,0,.08-3.28C249.57,101.32,247.58,98.15,245.64,94.83Zm-21.52,12.49c-15.79,21.78-35.7,37.78-61,45.86a55,55,0,0,1-59.61.09,105.94,105.94,0,0,1-11-4.33c-20.07-9.18-36.2-23.19-49.25-40.88-1.13-1.54-1.09-2.55,0-4.09C56.26,86.41,72.27,72.55,92.1,63.28c3-1.4,6.14-2.52,9.21-3.77q3.21-.61,6.22-1.12a55.08,55.08,0,0,1,46.63-2.28c8.29,1.18,11.4,3.14,11.48,3,5.76,2.71,11.69,5.1,17.23,8.2A125.1,125.1,0,0,1,224,104.59,3,3,0,0,1,224.12,107.32Z"/><path class="cls-1" d="M188.27,107a54.92,54.92,0,0,1-25.13,46.18c-2.67.87-5.41,1.63-8.21,2.31a92,92,0,0,1-51.4-2.22,55,55,0,0,1,4-94.88c23.14-3.92,37.82-3.54,46.63-2.28A55,55,0,0,1,188.27,107Z"/><path class="cls-1" d="M154.16,56.11c-8.81-1.26-23.49-1.64-46.63,2.28a55.08,55.08,0,0,1,46.63-2.28Z"/><path class="cls-1" d="M163.14,153.18a55,55,0,0,1-59.61.09,92,92,0,0,0,51.4,2.22C157.73,154.81,160.47,154.05,163.14,153.18Z"/></g></g></svg>